<svg xmlns="http://www.w3.org/2000/svg" width="842" height="596" viewBox="0 0 842 596">
<path d="M 553 510 553 544 559 544 559 510 Z" fill="#00B386"/><path d="M 527 510 527 544 534 544 534 519 537 516 539 516 540 515 545 515 546 516 546 510 538 510 537 511 536 511 534 513 533 512 533 510 Z" fill="#00B386"/><path d="M 476 510 476 544 482 544 482 510 Z" fill="#00B386"/><path d="M 440 510 440 544 447 544 447 510 Z" fill="#00B386"/><path d="M 373 510 372 511 370 511 365 516 365 517 364 518 364 519 363 520 363 534 364 535 364 537 365 538 365 539 369 543 370 543 371 544 373 544 374 545 382 545 383 544 385 544 386 543 387 543 391 539 391 538 392 537 392 536 393 535 393 531 394 530 394 525 393 524 393 520 392 519 392 517 391 516 391 515 388 512 387 512 386 511 385 511 384 510 Z" fill="#00B386"/><path d="M 581 509 580 510 576 510 575 511 573 511 572 512 570 512 570 515 571 516 571 517 573 517 574 516 576 516 577 515 585 515 588 518 588 523 587 524 580 524 579 525 576 525 575 526 573 526 569 530 569 531 568 532 568 538 569 539 569 540 570 541 570 542 571 543 572 543 573 544 574 544 575 545 582 545 583 544 585 544 586 543 587 543 588 542 589 543 589 544 595 544 595 519 594 518 594 515 593 514 593 513 591 511 590 511 589 510 585 510 584 509 Z" fill="#00B386"/><path d="M 504 509 503 510 498 510 497 511 495 511 494 512 493 512 493 516 494 517 496 517 497 516 498 516 499 515 508 515 511 518 511 523 510 524 502 524 501 525 499 525 498 526 496 526 492 530 492 531 491 532 491 539 492 540 492 541 494 543 495 543 496 544 497 544 498 545 505 545 506 544 508 544 509 543 510 543 511 544 517 544 517 515 516 514 516 513 514 511 513 511 512 510 508 510 507 509 Z" fill="#00B386"/><path d="M 323 509 322 510 318 510 317 511 315 511 314 512 313 512 312 513 311 512 311 510 305 510 305 544 311 544 311 519 312 518 313 518 315 516 317 516 318 515 323 515 324 516 325 516 326 517 326 519 327 520 327 544 333 544 333 519 336 516 338 516 339 515 345 515 347 517 347 518 348 519 348 544 354 544 354 516 353 515 353 513 350 510 346 510 345 509 343 509 342 510 338 510 337 511 336 511 335 512 334 512 333 513 332 513 329 510 326 510 325 509 Z" fill="#00B386"/><path d="M 284 509 283 510 279 510 278 511 276 511 275 512 274 512 273 513 272 512 272 510 266 510 266 544 272 544 272 519 274 517 275 517 276 516 278 516 279 515 285 515 287 517 287 518 288 519 288 544 294 544 294 516 293 515 293 513 290 510 286 510 285 509 Z" fill="#00B386"/><path d="M 248 498 248 544 254 544 254 498 Z" fill="#00B386"/><path d="M 554 495 552 497 552 502 553 503 558 503 560 501 560 496 559 495 Z" fill="#00B386"/><path d="M 477 495 475 497 475 502 476 503 481 503 483 501 483 497 481 495 Z" fill="#00B386"/><path d="M 442 495 441 496 440 496 440 497 439 498 439 501 441 503 446 503 447 502 447 501 448 500 448 498 447 497 447 496 446 495 Z" fill="#00B386"/><path d="M 458 494 458 544 464 544 464 494 Z" fill="#00B386"/><path d="M 402 494 402 543 404 543 405 544 408 544 409 545 418 545 419 544 421 544 422 543 423 543 424 542 425 542 428 539 428 538 430 536 430 534 431 533 431 529 432 528 432 523 431 522 431 519 430 518 430 516 428 514 428 513 427 513 425 511 424 511 423 510 413 510 412 511 411 511 410 512 409 512 408 511 408 494 Z" fill="#00B386"/><path d="M 719 374 718 375 718 376 717 377 717 379 716 380 716 381 715 382 715 383 714 384 714 385 713 386 713 387 712 388 712 390 711 391 711 392 710 393 710 394 709 395 709 396 708 397 708 399 707 400 707 401 706 402 706 403 705 404 705 406 704 407 704 408 703 409 703 411 702 412 702 413 701 414 701 416 700 417 700 418 699 419 699 421 698 422 698 423 697 424 697 426 696 427 696 428 695 429 695 431 694 432 694 433 693 434 693 436 692 437 692 439 691 440 691 441 690 442 690 444 689 445 689 447 688 448 688 449 687 450 687 452 686 453 686 455 685 456 685 458 684 459 684 460 683 461 683 463 682 464 682 466 681 467 681 469 680 470 680 472 679 473 679 474 678 475 678 478 697 478 698 477 698 476 699 475 699 473 700 472 700 470 701 469 701 467 702 466 702 464 703 463 703 461 704 460 704 459 705 458 705 456 706 455 706 454 707 453 749 453 750 454 750 455 751 456 751 458 752 459 752 461 753 462 753 463 754 464 754 466 755 467 755 469 756 470 756 471 757 472 757 474 758 475 758 477 759 478 779 478 779 476 778 475 778 473 777 472 777 470 776 469 776 467 775 466 775 465 774 464 774 462 773 461 773 459 772 458 772 456 771 455 771 454 770 453 770 451 769 450 769 448 768 447 768 446 767 445 767 443 766 442 766 440 765 439 765 438 764 437 764 435 763 434 763 433 762 432 762 430 761 429 761 428 760 427 760 425 759 424 759 422 758 421 758 420 757 419 757 417 756 416 756 415 755 414 755 413 754 412 754 410 753 409 753 408 752 407 752 405 751 404 751 403 750 402 750 401 749 400 749 398 748 397 748 396 747 395 747 394 746 393 746 391 745 390 745 389 744 388 744 387 743 386 743 385 742 384 742 382 741 381 741 380 740 379 740 378 739 377 739 376 738 375 738 374 Z" fill="#00B386"/><path d="M 381 374 381 478 399 478 399 406 400 405 404 409 404 410 408 414 408 415 411 418 411 419 414 422 414 423 416 425 416 426 419 429 419 430 421 432 421 433 424 436 424 437 426 439 426 440 428 442 428 443 430 445 430 446 432 448 432 449 434 451 434 452 436 454 436 455 438 457 438 458 439 459 439 460 441 462 441 463 443 465 443 466 445 468 445 469 446 470 446 471 448 473 448 474 449 475 449 476 451 478 467 478 467 374 448 374 448 439 447 440 445 438 445 437 443 435 443 434 441 432 441 431 439 429 439 428 437 426 437 425 435 423 435 422 432 419 432 418 430 416 430 415 427 412 427 411 424 408 424 407 421 404 421 403 418 400 418 399 414 395 414 394 411 391 411 390 407 386 407 385 401 379 401 378 397 374 Z" fill="#00B386"/><path d="M 337 374 337 478 356 478 356 374 Z" fill="#00B386"/><path d="M 74 374 74 478 144 478 144 462 94 462 93 461 93 432 94 431 135 431 135 415 94 415 93 414 93 391 94 390 141 390 141 374 Z" fill="#00B386"/><path d="M 253 373 252 374 246 374 245 375 243 375 243 478 262 478 262 442 263 441 283 441 284 440 290 440 291 439 294 439 295 438 298 438 299 437 300 437 301 436 303 436 305 434 306 434 307 433 308 433 314 427 314 426 316 424 316 423 317 422 317 420 318 419 318 416 319 415 319 398 318 397 318 394 317 393 317 392 316 391 316 390 315 389 315 388 313 386 313 385 311 383 310 383 307 380 306 380 305 379 304 379 303 378 302 378 301 377 300 377 299 376 297 376 296 375 293 375 292 374 288 374 287 373 Z" fill="#00B386"/><path d="M 632 371 631 372 626 372 625 373 623 373 622 374 620 374 619 375 618 375 617 376 616 376 615 377 614 377 606 385 606 386 605 387 605 388 604 389 604 391 603 392 603 396 602 397 602 405 603 406 603 410 604 411 604 413 605 414 605 415 607 417 607 418 612 423 613 423 615 425 616 425 617 426 618 426 619 427 620 427 621 428 622 428 623 429 624 429 625 430 627 430 628 431 630 431 631 432 632 432 633 433 635 433 636 434 638 434 639 435 640 435 641 436 642 436 643 437 644 437 647 440 648 440 650 442 650 443 652 445 652 447 653 448 653 453 652 454 652 456 647 461 646 461 645 462 644 462 643 463 638 463 637 464 629 464 628 463 622 463 621 462 618 462 617 461 615 461 614 460 612 460 611 459 610 459 609 458 608 458 607 457 606 457 605 458 605 459 604 460 604 462 603 463 603 465 602 466 602 468 601 469 601 471 600 472 600 473 601 473 602 474 603 474 604 475 606 475 607 476 609 476 610 477 612 477 613 478 616 478 617 479 622 479 623 480 643 480 644 479 649 479 650 478 653 478 654 477 655 477 656 476 658 476 660 474 661 474 663 472 664 472 668 468 668 467 669 466 669 465 670 464 670 463 671 462 671 460 672 459 672 455 673 454 673 446 672 445 672 441 671 440 671 438 670 437 670 436 669 435 669 434 668 433 668 432 662 426 661 426 659 424 658 424 657 423 656 423 655 422 654 422 653 421 652 421 651 420 650 420 649 419 647 419 646 418 645 418 644 417 642 417 641 416 639 416 638 415 637 415 636 414 635 414 634 413 633 413 632 412 631 412 630 411 629 411 624 406 624 405 623 404 623 403 622 402 622 398 623 397 623 395 629 389 631 389 632 388 647 388 648 389 652 389 653 390 655 390 656 391 657 391 658 392 659 392 660 393 663 393 663 391 664 390 664 388 665 387 665 386 666 385 666 383 667 382 667 380 668 379 668 378 667 377 666 377 665 376 664 376 663 375 661 375 660 374 658 374 657 373 654 373 653 372 647 372 646 371 Z" fill="#00B386"/><path d="M 532 371 531 372 526 372 525 373 522 373 521 374 519 374 518 375 517 375 516 376 515 376 514 377 513 377 512 378 511 378 509 380 508 380 505 383 504 383 500 387 500 388 497 391 497 392 495 394 495 395 494 396 494 397 493 398 493 399 492 400 492 402 491 403 491 405 490 406 490 408 489 409 489 413 488 414 488 437 489 438 489 442 490 443 490 446 491 447 491 449 492 450 492 451 493 452 493 453 494 454 494 455 495 456 495 457 496 458 496 459 498 461 498 462 507 471 508 471 510 473 511 473 512 474 513 474 514 475 515 475 516 476 517 476 518 477 520 477 521 478 524 478 525 479 529 479 530 480 547 480 548 479 552 479 553 478 555 478 556 477 558 477 559 476 561 476 562 475 563 475 564 474 565 474 567 472 568 472 571 469 572 469 577 464 577 463 580 460 580 459 581 458 581 457 582 456 582 455 583 454 583 453 584 452 584 451 585 450 585 448 586 447 586 445 587 444 587 441 588 440 588 433 589 432 589 419 588 418 588 412 587 411 587 407 586 406 586 404 585 403 585 402 584 401 584 399 583 398 583 397 582 396 582 395 580 393 580 392 578 390 578 389 569 380 568 380 566 378 565 378 564 377 563 377 562 376 561 376 560 375 558 375 557 374 555 374 554 373 552 373 551 372 545 372 544 371 Z" fill="#00B386"/><path d="M 186 371 185 372 180 372 179 373 176 373 175 374 174 374 173 375 171 375 169 377 168 377 166 379 165 379 161 383 161 384 159 386 159 387 158 388 158 390 157 391 157 394 156 395 156 408 157 409 157 411 158 412 158 414 160 416 160 417 167 424 168 424 170 426 171 426 172 427 173 427 174 428 175 428 176 429 178 429 179 430 180 430 181 431 183 431 184 432 186 432 187 433 189 433 190 434 191 434 192 435 193 435 194 436 195 436 196 437 197 437 198 438 199 438 205 444 205 445 206 446 206 449 207 450 207 451 206 452 206 455 205 456 205 457 201 461 200 461 199 462 197 462 196 463 191 463 190 464 183 464 182 463 175 463 174 462 172 462 171 461 169 461 168 460 166 460 165 459 164 459 163 458 161 458 160 457 159 457 159 458 158 459 158 461 157 462 157 464 156 465 156 467 155 468 155 469 154 470 154 473 155 473 156 474 157 474 158 475 159 475 160 476 162 476 163 477 166 477 167 478 170 478 171 479 176 479 177 480 197 480 198 479 203 479 204 478 206 478 207 477 209 477 210 476 211 476 212 475 213 475 214 474 215 474 222 467 222 466 224 464 224 462 225 461 225 459 226 458 226 442 225 441 225 439 224 438 224 436 222 434 222 433 220 431 220 430 217 427 216 427 214 425 213 425 211 423 210 423 209 422 208 422 207 421 205 421 204 420 203 420 202 419 201 419 200 418 198 418 197 417 195 417 194 416 193 416 192 415 190 415 189 414 188 414 187 413 186 413 185 412 184 412 181 409 180 409 179 408 179 407 177 405 177 404 176 403 176 396 177 395 177 394 181 390 182 390 183 389 185 389 186 388 201 388 202 389 205 389 206 390 208 390 209 391 211 391 212 392 213 392 214 393 216 393 216 392 217 391 217 390 218 389 218 387 219 386 219 385 220 384 220 382 221 381 221 379 222 378 221 377 219 377 218 376 217 376 216 375 214 375 213 374 211 374 210 373 207 373 206 372 200 372 199 371 Z" fill="#00B386"/><path d="M 427 33 425 35 424 35 424 36 423 37 423 42 422 43 422 85 423 86 423 88 425 90 426 90 427 91 428 91 429 92 430 92 431 93 432 93 433 94 434 94 435 95 436 95 437 96 438 96 439 97 440 97 441 98 442 98 443 99 444 99 445 100 446 100 447 101 448 101 449 102 450 102 451 103 452 103 453 104 454 104 455 105 456 105 457 106 458 106 459 107 460 107 461 108 462 108 463 109 464 109 465 110 466 110 467 111 468 111 469 112 470 112 471 113 472 113 473 114 474 114 475 115 476 115 477 116 478 116 479 117 480 117 481 118 482 118 483 119 484 119 485 120 486 120 487 121 488 121 489 122 490 122 491 123 492 123 493 124 494 124 495 125 496 125 497 126 498 126 499 127 500 127 501 128 502 128 503 129 504 129 505 130 506 130 507 131 508 131 509 132 510 132 511 133 512 133 517 138 517 187 513 191 511 191 510 192 341 192 338 195 338 196 337 197 337 234 338 235 338 236 341 239 566 239 567 238 568 238 569 237 569 236 570 235 570 233 571 232 571 109 570 108 570 106 569 105 569 104 568 104 566 102 565 102 564 101 563 101 562 100 561 100 560 99 559 99 558 98 557 98 556 97 555 97 554 96 553 96 552 95 551 95 550 94 549 94 547 92 546 92 545 91 544 91 543 90 542 90 541 89 540 89 539 88 538 88 537 87 536 87 535 86 534 86 533 85 532 85 531 84 530 84 529 83 528 83 527 82 526 82 525 81 524 81 522 79 521 79 520 78 519 78 518 77 517 77 516 76 515 76 514 75 513 75 512 74 511 74 510 73 509 73 508 72 507 72 506 71 505 71 504 70 503 70 502 69 501 69 500 68 499 68 497 66 496 66 495 65 494 65 493 64 492 64 491 63 490 63 489 62 488 62 487 61 486 61 485 60 484 60 483 59 482 59 481 58 480 58 479 57 478 57 477 56 476 56 475 55 474 55 472 53 471 53 470 52 469 52 468 51 467 51 466 50 465 50 464 49 463 49 462 48 461 48 460 47 459 47 458 46 457 46 456 45 455 45 454 44 453 44 452 43 451 43 450 42 449 42 447 40 446 40 445 39 444 39 443 38 442 38 441 37 440 37 439 36 438 36 437 35 436 35 435 34 434 34 433 33 Z" fill="#00B386"/><path d="M 408 33 407 34 406 34 405 35 404 35 403 36 402 36 400 38 399 38 398 39 397 39 396 40 395 40 394 41 393 41 392 42 391 42 389 44 388 44 387 45 386 45 385 46 384 46 383 47 382 47 380 49 379 49 378 50 377 50 376 51 375 51 374 52 373 52 372 53 371 53 369 55 368 55 367 56 366 56 365 57 364 57 363 58 362 58 360 60 359 60 358 61 357 61 356 62 355 62 354 63 353 63 352 64 351 64 349 66 348 66 347 67 346 67 345 68 344 68 343 69 342 69 340 71 339 71 338 72 337 72 336 73 335 73 334 74 333 74 331 76 330 76 329 77 328 77 327 78 326 78 325 79 324 79 323 80 322 80 320 82 319 82 318 83 317 83 316 84 315 84 314 85 313 85 311 87 310 87 309 88 308 88 307 89 306 89 305 90 304 90 303 91 302 91 300 93 299 93 298 94 297 94 296 95 295 95 294 96 293 96 291 98 290 98 289 99 288 99 287 100 286 100 285 101 284 101 282 103 281 103 280 104 279 104 278 105 277 105 276 106 275 106 274 107 273 107 271 109 271 110 270 111 270 335 271 336 271 337 273 339 275 339 276 340 565 340 566 339 568 339 570 337 570 336 571 335 571 297 570 296 570 295 568 293 566 293 565 292 329 292 328 291 327 291 325 289 325 288 324 287 324 143 325 142 325 141 328 138 329 138 330 137 331 137 332 136 333 136 334 135 335 135 337 133 338 133 339 132 340 132 341 131 342 131 343 130 344 130 346 128 347 128 348 127 349 127 350 126 351 126 352 125 353 125 354 124 355 124 357 122 358 122 359 121 360 121 361 120 362 120 363 119 364 119 366 117 367 117 368 116 369 116 370 115 371 115 372 114 373 114 375 112 376 112 377 111 378 111 379 110 380 110 381 109 382 109 383 108 384 108 386 106 387 106 388 105 389 105 390 104 391 104 392 103 393 103 395 101 396 101 397 100 398 100 399 99 400 99 401 98 402 98 404 96 405 96 406 95 407 95 408 94 409 94 410 93 411 93 412 92 413 92 415 90 416 90 417 89 417 88 418 87 418 37 414 33 Z" fill="#00B386"/>
</svg>